<svg height="4814" width="720" xmlns="http://www.w3.org/2000/svg">
<rect height="4814" fill="#555" width="720"></rect>
<text fill="#7f7" font-family="Courier New" font-size="12" xml:space="preserve">
<tspan x="10" y="26">48 megabytes installed</tspan>
<tspan x="10" y="42"></tspan>
<tspan x="10" y="58">node_modules</tspan>
<tspan x="10" y="74">└─┬ ember-cli-notifications@4.1.6 </tspan>
<tspan x="10" y="90">  ├─┬ ember-cli-babel@5.2.4 </tspan>
<tspan x="10" y="106">  │ ├─┬ broccoli-babel-transpiler@5.6.2 </tspan>
<tspan x="10" y="122">  │ │ ├─┬ babel-core@5.8.38 </tspan>
<tspan x="10" y="138">  │ │ │ ├── babel-plugin-constant-folding@1.0.1 </tspan>
<tspan x="10" y="154">  │ │ │ ├── babel-plugin-dead-code-elimination@1.0.2 </tspan>
<tspan x="10" y="170">  │ │ │ ├── babel-plugin-eval@1.0.1 </tspan>
<tspan x="10" y="186">  │ │ │ ├── babel-plugin-inline-environment-variables@1.0.1 </tspan>
<tspan x="10" y="202">  │ │ │ ├── babel-plugin-jscript@1.0.4 </tspan>
<tspan x="10" y="218">  │ │ │ ├── babel-plugin-member-expression-literals@1.0.1 </tspan>
<tspan x="10" y="234">  │ │ │ ├── babel-plugin-property-literals@1.0.1 </tspan>
<tspan x="10" y="250">  │ │ │ ├── babel-plugin-proto-to-assign@1.0.4 </tspan>
<tspan x="10" y="266">  │ │ │ ├── babel-plugin-react-constant-elements@1.0.3 </tspan>
<tspan x="10" y="282">  │ │ │ ├── babel-plugin-react-display-name@1.0.3 </tspan>
<tspan x="10" y="298">  │ │ │ ├── babel-plugin-remove-console@1.0.1 </tspan>
<tspan x="10" y="314">  │ │ │ ├── babel-plugin-remove-debugger@1.0.1 </tspan>
<tspan x="10" y="330">  │ │ │ ├── babel-plugin-runtime@1.0.7 </tspan>
<tspan x="10" y="346">  │ │ │ ├─┬ babel-plugin-undeclared-variables-check@1.0.2 </tspan>
<tspan x="10" y="362">  │ │ │ │ └── leven@1.0.2 </tspan>
<tspan x="10" y="378">  │ │ │ ├── babel-plugin-undefined-to-void@1.1.6 </tspan>
<tspan x="10" y="394">  │ │ │ ├── babylon@5.8.38 </tspan>
<tspan x="10" y="410">  │ │ │ ├── bluebird@2.11.0 </tspan>
<tspan x="10" y="426">  │ │ │ ├── convert-source-map@1.5.0 </tspan>
<tspan x="10" y="442">  │ │ │ ├── core-js@1.2.7 </tspan>
<tspan x="10" y="458">  │ │ │ ├─┬ detect-indent@3.0.1 </tspan>
<tspan x="10" y="474">  │ │ │ │ ├── get-stdin@4.0.1 </tspan>
<tspan x="10" y="490">  │ │ │ │ └── minimist@1.2.0 </tspan>
<tspan x="10" y="506">  │ │ │ ├── esutils@2.0.2 </tspan>
<tspan x="10" y="522">  │ │ │ ├── fs-readdir-recursive@0.1.2 </tspan>
<tspan x="10" y="538">  │ │ │ ├── globals@6.4.1 </tspan>
<tspan x="10" y="554">  │ │ │ ├─┬ home-or-tmp@1.0.0 </tspan>
<tspan x="10" y="570">  │ │ │ │ ├── os-tmpdir@1.0.2 </tspan>
<tspan x="10" y="586">  │ │ │ │ └── user-home@1.1.1 </tspan>
<tspan x="10" y="602">  │ │ │ ├─┬ is-integer@1.0.6 </tspan>
<tspan x="10" y="618">  │ │ │ │ └─┬ is-finite@1.0.2 </tspan>
<tspan x="10" y="634">  │ │ │ │   └── number-is-nan@1.0.1 </tspan>
<tspan x="10" y="650">  │ │ │ ├── js-tokens@1.0.1 </tspan>
<tspan x="10" y="666">  │ │ │ ├── json5@0.4.0 </tspan>
<tspan x="10" y="682">  │ │ │ ├── lodash@3.10.1 </tspan>
<tspan x="10" y="698">  │ │ │ ├── minimatch@2.0.10 </tspan>
<tspan x="10" y="714">  │ │ │ ├── output-file-sync@1.1.2 </tspan>
<tspan x="10" y="730">  │ │ │ ├── path-exists@1.0.0 </tspan>
<tspan x="10" y="746">  │ │ │ ├── path-is-absolute@1.0.1 </tspan>
<tspan x="10" y="762">  │ │ │ ├── private@0.1.7 </tspan>
<tspan x="10" y="778">  │ │ │ ├─┬ regenerator@0.8.40 </tspan>
<tspan x="10" y="794">  │ │ │ │ ├─┬ commoner@0.10.8 </tspan>
<tspan x="10" y="810">  │ │ │ │ │ ├─┬ commander@2.9.0 </tspan>
<tspan x="10" y="826">  │ │ │ │ │ │ └── graceful-readlink@1.0.1 </tspan>
<tspan x="10" y="842">  │ │ │ │ │ ├─┬ detective@4.5.0 </tspan>
<tspan x="10" y="858">  │ │ │ │ │ │ ├── acorn@4.0.11 </tspan>
<tspan x="10" y="874">  │ │ │ │ │ │ └── defined@1.0.0 </tspan>
<tspan x="10" y="890">  │ │ │ │ │ ├── iconv-lite@0.4.15 </tspan>
<tspan x="10" y="906">  │ │ │ │ │ ├── q@1.5.0 </tspan>
<tspan x="10" y="922">  │ │ │ │ │ └─┬ recast@0.11.23 </tspan>
<tspan x="10" y="938">  │ │ │ │ │   ├── ast-types@0.9.6 </tspan>
<tspan x="10" y="954">  │ │ │ │ │   └── esprima@3.1.3 </tspan>
<tspan x="10" y="970">  │ │ │ │ ├─┬ defs@1.1.1 </tspan>
<tspan x="10" y="986">  │ │ │ │ │ ├─┬ alter@0.2.0 </tspan>
<tspan x="10" y="1002">  │ │ │ │ │ │ └── stable@0.1.6 </tspan>
<tspan x="10" y="1018">  │ │ │ │ │ ├── ast-traverse@0.1.1 </tspan>
<tspan x="10" y="1034">  │ │ │ │ │ ├── breakable@1.0.0 </tspan>
<tspan x="10" y="1050">  │ │ │ │ │ ├── simple-fmt@0.1.0 </tspan>
<tspan x="10" y="1066">  │ │ │ │ │ ├── simple-is@0.2.0 </tspan>
<tspan x="10" y="1082">  │ │ │ │ │ ├── stringmap@0.2.2 </tspan>
<tspan x="10" y="1098">  │ │ │ │ │ ├── stringset@0.2.1 </tspan>
<tspan x="10" y="1114">  │ │ │ │ │ ├── tryor@0.1.2 </tspan>
<tspan x="10" y="1130">  │ │ │ │ │ └─┬ yargs@3.27.0 </tspan>
<tspan x="10" y="1146">  │ │ │ │ │   ├── camelcase@1.2.1 </tspan>
<tspan x="10" y="1162">  │ │ │ │ │   ├─┬ cliui@2.1.0 </tspan>
<tspan x="10" y="1178">  │ │ │ │ │   │ ├─┬ center-align@0.1.3 </tspan>
<tspan x="10" y="1194">  │ │ │ │ │   │ │ ├─┬ align-text@0.1.4 </tspan>
<tspan x="10" y="1210">  │ │ │ │ │   │ │ │ ├─┬ kind-of@3.1.0 </tspan>
<tspan x="10" y="1226">  │ │ │ │ │   │ │ │ │ └── is-buffer@1.1.5 </tspan>
<tspan x="10" y="1242">  │ │ │ │ │   │ │ │ ├── longest@1.0.1 </tspan>
<tspan x="10" y="1258">  │ │ │ │ │   │ │ │ └── repeat-string@1.6.1 </tspan>
<tspan x="10" y="1274">  │ │ │ │ │   │ │ └── lazy-cache@1.0.4 </tspan>
<tspan x="10" y="1290">  │ │ │ │ │   │ ├── right-align@0.1.3 </tspan>
<tspan x="10" y="1306">  │ │ │ │ │   │ └── wordwrap@0.0.2 </tspan>
<tspan x="10" y="1322">  │ │ │ │ │   ├── decamelize@1.2.0 </tspan>
<tspan x="10" y="1338">  │ │ │ │ │   ├─┬ os-locale@1.4.0 </tspan>
<tspan x="10" y="1354">  │ │ │ │ │   │ └─┬ lcid@1.0.0 </tspan>
<tspan x="10" y="1370">  │ │ │ │ │   │   └── invert-kv@1.0.0 </tspan>
<tspan x="10" y="1386">  │ │ │ │ │   ├── window-size@0.1.4 </tspan>
<tspan x="10" y="1402">  │ │ │ │ │   └── y18n@3.2.1 </tspan>
<tspan x="10" y="1418">  │ │ │ │ ├── esprima-fb@15001.1001.0-dev-harmony-fb </tspan>
<tspan x="10" y="1434">  │ │ │ │ ├─┬ recast@0.10.33 </tspan>
<tspan x="10" y="1450">  │ │ │ │ │ └── ast-types@0.8.12 </tspan>
<tspan x="10" y="1466">  │ │ │ │ └── through@2.3.8 </tspan>
<tspan x="10" y="1482">  │ │ │ ├─┬ regexpu@1.3.0 </tspan>
<tspan x="10" y="1498">  │ │ │ │ ├── esprima@2.7.3 </tspan>
<tspan x="10" y="1514">  │ │ │ │ ├── regenerate@1.3.2 </tspan>
<tspan x="10" y="1530">  │ │ │ │ ├── regjsgen@0.2.0 </tspan>
<tspan x="10" y="1546">  │ │ │ │ └─┬ regjsparser@0.1.5 </tspan>
<tspan x="10" y="1562">  │ │ │ │   └── jsesc@0.5.0 </tspan>
<tspan x="10" y="1578">  │ │ │ ├── repeating@1.1.3 </tspan>
<tspan x="10" y="1594">  │ │ │ ├── shebang-regex@1.0.0 </tspan>
<tspan x="10" y="1610">  │ │ │ ├── slash@1.0.0 </tspan>
<tspan x="10" y="1626">  │ │ │ ├─┬ source-map-support@0.2.10 </tspan>
<tspan x="10" y="1642">  │ │ │ │ └── source-map@0.1.32 </tspan>
<tspan x="10" y="1658">  │ │ │ ├── to-fast-properties@1.0.2 </tspan>
<tspan x="10" y="1674">  │ │ │ ├── trim-right@1.0.1 </tspan>
<tspan x="10" y="1690">  │ │ │ └── try-resolve@1.0.1 </tspan>
<tspan x="10" y="1706">  │ │ ├─┬ broccoli-merge-trees@1.2.4 </tspan>
<tspan x="10" y="1722">  │ │ │ └─┬ can-symlink@1.0.0 </tspan>
<tspan x="10" y="1738">  │ │ │   └── tmp@0.0.28 </tspan>
<tspan x="10" y="1754">  │ │ └── clone@0.2.0 </tspan>
<tspan x="10" y="1770">  │ ├─┬ broccoli-funnel@1.1.0 </tspan>
<tspan x="10" y="1786">  │ │ ├── array-equal@1.0.0 </tspan>
<tspan x="10" y="1802">  │ │ ├── blank-object@1.0.2 </tspan>
<tspan x="10" y="1818">  │ │ ├─┬ broccoli-plugin@1.3.0 </tspan>
<tspan x="10" y="1834">  │ │ │ └─┬ quick-temp@0.1.8 </tspan>
<tspan x="10" y="1850">  │ │ │   ├── mktemp@0.4.0 </tspan>
<tspan x="10" y="1866">  │ │ │   └─┬ underscore.string@3.3.4 </tspan>
<tspan x="10" y="1882">  │ │ │     ├── sprintf-js@1.0.3 </tspan>
<tspan x="10" y="1898">  │ │ │     └── util-deprecate@1.0.2 </tspan>
<tspan x="10" y="1914">  │ │ ├── exists-sync@0.0.4 </tspan>
<tspan x="10" y="1930">  │ │ ├── fast-ordered-set@1.0.3 </tspan>
<tspan x="10" y="1946">  │ │ ├── fs-tree-diff@0.5.6 </tspan>
<tspan x="10" y="1962">  │ │ ├─┬ heimdalljs@0.2.4 </tspan>
<tspan x="10" y="1978">  │ │ │ └── rsvp@3.2.1 </tspan>
<tspan x="10" y="1994">  │ │ ├─┬ minimatch@3.0.3 </tspan>
<tspan x="10" y="2010">  │ │ │ └─┬ brace-expansion@1.1.7 </tspan>
<tspan x="10" y="2026">  │ │ │   └── concat-map@0.0.1 </tspan>
<tspan x="10" y="2042">  │ │ ├─┬ mkdirp@0.5.1 </tspan>
<tspan x="10" y="2058">  │ │ │ └── minimist@0.0.8 </tspan>
<tspan x="10" y="2074">  │ │ ├── path-posix@1.0.0 </tspan>
<tspan x="10" y="2090">  │ │ ├─┬ rimraf@2.6.1 </tspan>
<tspan x="10" y="2106">  │ │ │ └─┬ glob@7.1.1 </tspan>
<tspan x="10" y="2122">  │ │ │   ├── fs.realpath@1.0.0 </tspan>
<tspan x="10" y="2138">  │ │ │   ├─┬ inflight@1.0.6 </tspan>
<tspan x="10" y="2154">  │ │ │   │ └── wrappy@1.0.2 </tspan>
<tspan x="10" y="2170">  │ │ │   ├── inherits@2.0.3 </tspan>
<tspan x="10" y="2186">  │ │ │   ├── minimatch@3.0.3 </tspan>
<tspan x="10" y="2202">  │ │ │   └── once@1.4.0 </tspan>
<tspan x="10" y="2218">  │ │ ├── symlink-or-copy@1.1.8 </tspan>
<tspan x="10" y="2234">  │ │ └─┬ walk-sync@0.3.1 </tspan>
<tspan x="10" y="2250">  │ │   └─┬ matcher-collection@1.0.4 </tspan>
<tspan x="10" y="2266">  │ │     └── minimatch@3.0.3 </tspan>
<tspan x="10" y="2282">  │ ├── clone@2.1.1 </tspan>
<tspan x="10" y="2298">  │ ├─┬ ember-cli-version-checker@1.2.0 </tspan>
<tspan x="10" y="2314">  │ │ └── semver@5.3.0 </tspan>
<tspan x="10" y="2330">  │ └─┬ resolve@1.3.2 </tspan>
<tspan x="10" y="2346">  │   └── path-parse@1.0.5 </tspan>
<tspan x="10" y="2362">  ├─┬ ember-cli-htmlbars@1.3.0 </tspan>
<tspan x="10" y="2378">  │ ├─┬ broccoli-persistent-filter@1.2.13 </tspan>
<tspan x="10" y="2394">  │ │ ├─┬ async-disk-cache@1.3.1 </tspan>
<tspan x="10" y="2410">  │ │ │ └─┬ istextorbinary@2.1.0 </tspan>
<tspan x="10" y="2426">  │ │ │   ├── binaryextensions@2.0.0 </tspan>
<tspan x="10" y="2442">  │ │ │   ├── editions@1.3.3 </tspan>
<tspan x="10" y="2458">  │ │ │   └── textextensions@2.0.1 </tspan>
<tspan x="10" y="2474">  │ │ ├── heimdalljs-logger@0.1.9 </tspan>
<tspan x="10" y="2490">  │ │ ├─┬ md5-hex@1.3.0 </tspan>
<tspan x="10" y="2506">  │ │ │ └── md5-o-matic@0.1.1 </tspan>
<tspan x="10" y="2522">  │ │ ├── promise-map-series@0.2.3 </tspan>
<tspan x="10" y="2538">  │ │ └── rsvp@3.5.0 </tspan>
<tspan x="10" y="2554">  │ ├─┬ hash-for-dep@1.1.2 </tspan>
<tspan x="10" y="2570">  │ │ └─┬ broccoli-kitchen-sink-helpers@0.3.1 </tspan>
<tspan x="10" y="2586">  │ │   └── glob@5.0.15 </tspan>
<tspan x="10" y="2602">  │ ├─┬ json-stable-stringify@1.0.1 </tspan>
<tspan x="10" y="2618">  │ │ └── jsonify@0.0.0 </tspan>
<tspan x="10" y="2634">  │ └─┬ strip-bom@2.0.0 </tspan>
<tspan x="10" y="2650">  │   └── is-utf8@0.2.1 </tspan>
<tspan x="10" y="2666">  ├─┬ ember-css-modules@0.6.5 </tspan>
<tspan x="10" y="2682">  │ ├─┬ broccoli-concat@3.2.2 </tspan>
<tspan x="10" y="2698">  │ │ ├─┬ broccoli-stew@1.4.2 </tspan>
<tspan x="10" y="2714">  │ │ │ ├── fs-extra@2.1.2 </tspan>
<tspan x="10" y="2730">  │ │ │ ├── minimatch@3.0.3 </tspan>
<tspan x="10" y="2746">  │ │ │ └─┬ sanitize-filename@1.6.1 </tspan>
<tspan x="10" y="2762">  │ │ │   └─┬ truncate-utf8-bytes@1.0.2 </tspan>
<tspan x="10" y="2778">  │ │ │     └── utf8-byte-length@1.0.4 </tspan>
<tspan x="10" y="2794">  │ │ ├─┬ fast-sourcemap-concat@1.1.0 </tspan>
<tspan x="10" y="2810">  │ │ │ ├─┬ chalk@0.5.1 </tspan>
<tspan x="10" y="2826">  │ │ │ │ ├── ansi-styles@1.1.0 </tspan>
<tspan x="10" y="2842">  │ │ │ │ ├─┬ has-ansi@0.1.0 </tspan>
<tspan x="10" y="2858">  │ │ │ │ │ └── ansi-regex@0.2.1 </tspan>
<tspan x="10" y="2874">  │ │ │ │ ├── strip-ansi@0.3.0 </tspan>
<tspan x="10" y="2890">  │ │ │ │ └── supports-color@0.2.0 </tspan>
<tspan x="10" y="2906">  │ │ │ ├── fs-extra@0.30.0 </tspan>
<tspan x="10" y="2922">  │ │ │ ├─┬ memory-streams@0.1.2 </tspan>
<tspan x="10" y="2938">  │ │ │ │ └─┬ readable-stream@1.0.34 </tspan>
<tspan x="10" y="2954">  │ │ │ │   ├── core-util-is@1.0.2 </tspan>
<tspan x="10" y="2970">  │ │ │ │   ├── isarray@0.0.1 </tspan>
<tspan x="10" y="2986">  │ │ │ │   └── string_decoder@0.10.31 </tspan>
<tspan x="10" y="3002">  │ │ │ ├─┬ source-map@0.4.4 </tspan>
<tspan x="10" y="3018">  │ │ │ │ └── amdefine@1.0.1 </tspan>
<tspan x="10" y="3034">  │ │ │ └── source-map-url@0.3.0 </tspan>
<tspan x="10" y="3050">  │ │ ├── find-index@1.1.0 </tspan>
<tspan x="10" y="3066">  │ │ ├─┬ fs-extra@1.0.0 </tspan>
<tspan x="10" y="3082">  │ │ │ ├── graceful-fs@4.1.11 </tspan>
<tspan x="10" y="3098">  │ │ │ ├── jsonfile@2.4.0 </tspan>
<tspan x="10" y="3114">  │ │ │ └── klaw@1.3.1 </tspan>
<tspan x="10" y="3130">  │ │ ├── lodash.merge@4.6.0 </tspan>
<tspan x="10" y="3146">  │ │ ├── lodash.omit@4.5.0 </tspan>
<tspan x="10" y="3162">  │ │ └── lodash.uniq@4.5.0 </tspan>
<tspan x="10" y="3178">  │ ├─┬ broccoli-css-modules@0.5.5 </tspan>
<tspan x="10" y="3194">  │ │ ├── broccoli-caching-writer@3.0.3 </tspan>
<tspan x="10" y="3210">  │ │ ├── icss-replace-symbols@1.0.2 </tspan>
<tspan x="10" y="3226">  │ │ ├── object-assign@4.1.1 </tspan>
<tspan x="10" y="3242">  │ │ ├── postcss-modules-extract-imports@1.0.1 </tspan>
<tspan x="10" y="3258">  │ │ ├─┬ postcss-modules-local-by-default@1.1.1 </tspan>
<tspan x="10" y="3274">  │ │ │ └─┬ css-selector-tokenizer@0.6.0 </tspan>
<tspan x="10" y="3290">  │ │ │   ├── cssesc@0.1.0 </tspan>
<tspan x="10" y="3306">  │ │ │   ├── fastparse@1.1.1 </tspan>
<tspan x="10" y="3322">  │ │ │   └── regexpu-core@1.0.0 </tspan>
<tspan x="10" y="3338">  │ │ ├── postcss-modules-scope@1.0.2 </tspan>
<tspan x="10" y="3354">  │ │ └── postcss-modules-values@1.2.2 </tspan>
<tspan x="10" y="3370">  │ ├─┬ broccoli-merge-trees@2.0.0 </tspan>
<tspan x="10" y="3386">  │ │ └── merge-trees@1.0.1 </tspan>
<tspan x="10" y="3402">  │ ├─┬ debug@2.6.3 </tspan>
<tspan x="10" y="3418">  │ │ └── ms@0.7.2 </tspan>
<tspan x="10" y="3434">  │ ├─┬ ember-getowner-polyfill@1.2.2 </tspan>
<tspan x="10" y="3450">  │ │ └── ember-factory-for-polyfill@1.1.1 </tspan>
<tspan x="10" y="3466">  │ ├── ensure-posix-path@1.0.2 </tspan>
<tspan x="10" y="3482">  │ ├── hash-string@1.0.0 </tspan>
<tspan x="10" y="3498">  │ ├─┬ postcss@5.2.17 </tspan>
<tspan x="10" y="3514">  │ │ ├── js-base64@2.1.9 </tspan>
<tspan x="10" y="3530">  │ │ ├── source-map@0.5.6 </tspan>
<tspan x="10" y="3546">  │ │ └─┬ supports-color@3.2.3 </tspan>
<tspan x="10" y="3562">  │ │   └── has-flag@1.0.0 </tspan>
<tspan x="10" y="3578">  │ └── toposort@1.0.3 </tspan>
<tspan x="10" y="3594">  ├── ember-runtime-enumerable-includes-polyfill@1.0.4 </tspan>
<tspan x="10" y="3610">  └─┬ postcss-cssnext@2.10.0 </tspan>
<tspan x="10" y="3626">    ├─┬ autoprefixer@6.7.7 </tspan>
<tspan x="10" y="3642">    │ ├─┬ browserslist@1.7.7 </tspan>
<tspan x="10" y="3658">    │ │ └── electron-to-chromium@1.3.3 </tspan>
<tspan x="10" y="3674">    │ ├── caniuse-db@1.0.30000655 </tspan>
<tspan x="10" y="3690">    │ ├── normalize-range@0.1.2 </tspan>
<tspan x="10" y="3706">    │ ├── num2fraction@1.2.2 </tspan>
<tspan x="10" y="3722">    │ └── postcss-value-parser@3.3.0 </tspan>
<tspan x="10" y="3738">    ├─┬ caniuse-api@1.6.1 </tspan>
<tspan x="10" y="3754">    │ └── lodash.memoize@4.1.2 </tspan>
<tspan x="10" y="3770">    ├─┬ chalk@1.1.3 </tspan>
<tspan x="10" y="3786">    │ ├── ansi-styles@2.2.1 </tspan>
<tspan x="10" y="3802">    │ ├── escape-string-regexp@1.0.5 </tspan>
<tspan x="10" y="3818">    │ ├─┬ has-ansi@2.0.0 </tspan>
<tspan x="10" y="3834">    │ │ └── ansi-regex@2.1.1 </tspan>
<tspan x="10" y="3850">    │ ├── strip-ansi@3.0.1 </tspan>
<tspan x="10" y="3866">    │ └── supports-color@2.0.0 </tspan>
<tspan x="10" y="3882">    ├─┬ pixrem@3.0.2 </tspan>
<tspan x="10" y="3898">    │ └─┬ reduce-css-calc@1.3.0 </tspan>
<tspan x="10" y="3914">    │   └── math-expression-evaluator@1.2.16 </tspan>
<tspan x="10" y="3930">    ├─┬ pleeease-filters@3.0.1 </tspan>
<tspan x="10" y="3946">    │ └── onecolor@2.4.2 </tspan>
<tspan x="10" y="3962">    ├─┬ postcss-apply@0.3.0 </tspan>
<tspan x="10" y="3978">    │ └── balanced-match@0.4.2 </tspan>
<tspan x="10" y="3994">    ├─┬ postcss-attribute-case-insensitive@1.0.1 </tspan>
<tspan x="10" y="4010">    │ └─┬ postcss-selector-parser@2.2.3 </tspan>
<tspan x="10" y="4026">    │   ├── flatten@1.0.2 </tspan>
<tspan x="10" y="4042">    │   ├── indexes-of@1.0.1 </tspan>
<tspan x="10" y="4058">    │   └── uniq@1.0.1 </tspan>
<tspan x="10" y="4074">    ├─┬ postcss-calc@5.3.1 </tspan>
<tspan x="10" y="4090">    │ └── postcss-message-helpers@2.0.0 </tspan>
<tspan x="10" y="4106">    ├─┬ postcss-color-function@2.0.1 </tspan>
<tspan x="10" y="4122">    │ └─┬ css-color-function@1.3.0 </tspan>
<tspan x="10" y="4138">    │   ├── balanced-match@0.1.0 </tspan>
<tspan x="10" y="4154">    │   ├── debug@0.7.4 </tspan>
<tspan x="10" y="4170">    │   └── rgb@0.1.0 </tspan>
<tspan x="10" y="4186">    ├─┬ postcss-color-gray@3.0.1 </tspan>
<tspan x="10" y="4202">    │ ├─┬ color@0.11.4 </tspan>
<tspan x="10" y="4218">    │ │ ├── clone@1.0.2 </tspan>
<tspan x="10" y="4234">    │ │ ├─┬ color-convert@1.9.0 </tspan>
<tspan x="10" y="4250">    │ │ │ └── color-name@1.1.2 </tspan>
<tspan x="10" y="4266">    │ │ └── color-string@0.3.0 </tspan>
<tspan x="10" y="4282">    │ └── reduce-function-call@1.0.2 </tspan>
<tspan x="10" y="4298">    ├─┬ postcss-color-hex-alpha@2.0.0 </tspan>
<tspan x="10" y="4314">    │ └─┬ color@0.10.1 </tspan>
<tspan x="10" y="4330">    │   └── color-convert@0.5.3 </tspan>
<tspan x="10" y="4346">    ├─┬ postcss-color-hsl@1.0.5 </tspan>
<tspan x="10" y="4362">    │ └─┬ units-css@0.4.0 </tspan>
<tspan x="10" y="4378">    │   ├── isnumeric@0.2.0 </tspan>
<tspan x="10" y="4394">    │   └── viewport-dimensions@0.2.0 </tspan>
<tspan x="10" y="4410">    ├── postcss-color-hwb@2.0.1 </tspan>
<tspan x="10" y="4426">    ├── postcss-color-rebeccapurple@2.0.1 </tspan>
<tspan x="10" y="4442">    ├── postcss-color-rgb@1.1.4 </tspan>
<tspan x="10" y="4458">    ├─┬ postcss-color-rgba-fallback@2.2.0 </tspan>
<tspan x="10" y="4474">    │ └── rgb-hex@1.0.0 </tspan>
<tspan x="10" y="4490">    ├── postcss-custom-media@5.0.1 </tspan>
<tspan x="10" y="4506">    ├── postcss-custom-properties@5.0.2 </tspan>
<tspan x="10" y="4522">    ├─┬ postcss-custom-selectors@3.0.0 </tspan>
<tspan x="10" y="4538">    │ └── balanced-match@0.2.1 </tspan>
<tspan x="10" y="4554">    ├─┬ postcss-font-family-system-ui@1.0.2 </tspan>
<tspan x="10" y="4570">    │ └── lodash@4.17.4 </tspan>
<tspan x="10" y="4586">    ├── postcss-font-variant@2.0.1 </tspan>
<tspan x="10" y="4602">    ├─┬ postcss-initial@1.5.3 </tspan>
<tspan x="10" y="4618">    │ └─┬ lodash.template@4.4.0 </tspan>
<tspan x="10" y="4634">    │   ├── lodash._reinterpolate@3.0.0 </tspan>
<tspan x="10" y="4650">    │   └── lodash.templatesettings@4.1.0 </tspan>
<tspan x="10" y="4666">    ├── postcss-media-minmax@2.1.2 </tspan>
<tspan x="10" y="4682">    ├── postcss-nesting@2.3.1 </tspan>
<tspan x="10" y="4698">    ├─┬ postcss-pseudo-class-any-link@1.0.0 </tspan>
<tspan x="10" y="4714">    │ └── postcss-selector-parser@1.3.3 </tspan>
<tspan x="10" y="4730">    ├── postcss-pseudoelements@3.0.0 </tspan>
<tspan x="10" y="4746">    ├── postcss-replace-overflow-wrap@1.0.0 </tspan>
<tspan x="10" y="4762">    ├── postcss-selector-matches@2.0.5 </tspan>
<tspan x="10" y="4778">    └─┬ postcss-selector-not@2.0.0 </tspan>
<tspan x="10" y="4794">      └── balanced-match@0.2.1</tspan>
</text>
</svg>
